<svg width="20" height="20" viewBox="0 0 20 20" fill="none" xmlns="http://www.w3.org/2000/svg">
<path d="M4 7.17512C4.08371 7.08482 4.18439 7.01191 4.29628 6.96053C4.40818 6.90915 4.5291 6.88031 4.65214 6.87567C4.77518 6.87102 4.89793 6.89066 5.01338 6.93346C5.12883 6.97627 5.23472 7.04139 5.325 7.12512L10 11.5339L14.675 7.12512C14.7653 7.0414 14.8712 6.97628 14.9866 6.93349C15.1021 6.89069 15.2248 6.87106 15.3479 6.8757C15.4709 6.88034 15.5918 6.90918 15.7037 6.96055C15.8156 7.01192 15.9163 7.08483 16 7.17512C16.0837 7.2654 16.1488 7.37129 16.1916 7.48674C16.2344 7.60219 16.2541 7.72494 16.2494 7.84797C16.2448 7.97101 16.2159 8.09193 16.1646 8.20382C16.1132 8.31572 16.0403 8.4164 15.95 8.50012L10.6375 13.5001C10.4641 13.6609 10.2364 13.7502 10 13.7502C9.76356 13.7502 9.53585 13.6609 9.3625 13.5001L4.05 8.50012C3.9597 8.41641 3.88678 8.31573 3.8354 8.20383C3.78402 8.09194 3.75519 7.97102 3.75054 7.84797C3.7459 7.72493 3.76554 7.60218 3.80834 7.48673C3.85114 7.37128 3.91627 7.2654 4 7.17512Z" fill="#292D33"/>
</svg>
